<svg width={13} height={12} viewBox="0 0 13 12" fill="none" xmlns="http://www.w3.org/2000/svg">
  <path d="M12.0625 5.85303C12.0625 9.06396 9.4375 11.6655 6.25 11.6655C3.03906 11.6655 0.4375 9.06396 0.4375 5.85303C0.4375 2.66553 3.03906 0.0405273 6.25 0.0405273C9.4375 0.0405273 12.0625 2.66553 12.0625 5.85303ZM5.57031 8.94678L9.88281 4.63428C10.0234 4.49365 10.0234 4.23584 9.88281 4.09521L9.34375 3.57959C9.20312 3.41553 8.96875 3.41553 8.82812 3.57959L5.3125 7.09521L3.64844 5.45459C3.50781 5.29053 3.27344 5.29053 3.13281 5.45459L2.59375 5.97021C2.45312 6.11084 2.45312 6.36865 2.59375 6.50928L5.03125 8.94678C5.17188 9.0874 5.42969 9.0874 5.57031 8.94678Z" fill="#FF3F01" />
</svg>
