<svg width="10" height="10" viewBox="0 0 10 10" fill="none" xmlns="http://www.w3.org/2000/svg">
<path d="M9.81255 4.79974C9.81255 7.29271 7.77451 9.31256 5.29974 9.31256C2.80678 9.31256 0.786932 7.29271 0.786932 4.79974C0.786932 2.32498 2.80678 0.286934 5.29974 0.286934C7.77451 0.286934 9.81255 2.32498 9.81255 4.79974ZM4.77203 7.20172L8.12025 3.85351C8.22943 3.74433 8.22943 3.54416 8.12025 3.43498L7.70172 3.03465C7.59254 2.90728 7.41057 2.90728 7.30139 3.03465L4.57187 5.76418L3.2799 4.4904C3.17071 4.36302 2.98875 4.36302 2.87957 4.4904L2.46104 4.89073C2.35186 4.99991 2.35186 5.20007 2.46104 5.30926L4.35351 7.20172C4.46269 7.31091 4.66285 7.31091 4.77203 7.20172Z" fill="#6DCC76"/>
</svg>
