<svg width="45" height="47" viewBox="0 0 45 47" fill="none" xmlns="http://www.w3.org/2000/svg">
<g id="Football">
<path id="Vector" d="M22 7C23.9 7 25.5 5.4 25.5 3.5C25.5 1.6 24 0 22 0C20 0 18.5 1.6 18.5 3.5C18.5 5.4 20.1 7 22 7ZM22 1C23.4 1 24.5 2.1 24.5 3.5C24.5 4.9 23.4 6 22 6C20.6 6 19.5 4.9 19.5 3.5C19.5 2.1 20.7 1 22 1Z" fill="black"/>
<path id="Vector_2" d="M41.9 8H18C17.3 8 16.7 8.3 16.2 8.7L5 20C4.1 20.9 4 22.3 4.7 23.3C5.1 23.9 5.8 24.3 6.5 24.3C6.6 24.3 6.6 24.3 6.7 24.3C7.4 24.3 8 24 8.5 23.6L17.5 14.6V22.6V23.6L11.9 29.2H3C1.7 29.2 0.6 30.1 0.4 31.3C0.3 32 0.5 32.8 1 33.3C1.5 33.9 2.2 34.2 2.9 34.2H12.9C13.6 34.2 14.2 33.9 14.7 33.5L21 27.2H22.3L25.3 34.4V43.8C25.3 45.1 26.2 46.2 27.4 46.4C27.5 46.4 27.7 46.4 27.8 46.4C28.4 46.4 29 46.2 29.4 45.8C30 45.3 30.3 44.6 30.3 43.9V33.9C30.3 33.6 30.2 33.2 30.1 32.9L26.5 24V22.5V13H42C42.7 13 43.4 12.7 43.9 12.1C44.4 11.5 44.6 10.8 44.5 10.1C44.3 8.9 43.2 8 41.9 8ZM29.2 33.2C29.3 33.4 29.3 33.6 29.3 33.8V43.8C29.3 44.2 29.1 44.7 28.8 44.9C28.5 45.2 28 45.3 27.6 45.2C26.9 45.1 26.4 44.4 26.4 43.6V34.1C26.4 34 26.4 34 26.4 33.9L23.2 26.3C23.1 26.1 22.9 26 22.7 26H20.9C20.8 26 20.6 26.1 20.5 26.1L14 32.7C13.7 33 13.3 33.1 12.9 33.1H3C2.6 33.1 2.1 32.9 1.9 32.6C1.6 32.3 1.5 31.8 1.6 31.4C1.7 30.7 2.4 30.2 3.2 30.2H12.3C12.4 30.2 12.6 30.1 12.7 30.1L18.6 24.2C18.7 24.1 18.7 24 18.7 23.8V23H25.7V24.1C25.7 24.2 25.7 24.2 25.7 24.3L29.2 33.2ZM43.2 11.5C42.9 11.8 42.5 12 42 12H26C25.7 12 25.5 12.2 25.5 12.5V22H18.5V13.3C18.5 13.1 18.4 12.9 18.2 12.8C18 12.7 17.8 12.8 17.7 12.9L7.8 22.8C7.5 23.1 7.1 23.3 6.6 23.2C6.2 23.2 5.8 22.9 5.5 22.6C5.1 22 5.2 21.2 5.7 20.6L17 9.5C17.3 9.2 17.7 9.1 18.1 9.1H42C42.8 9.1 43.5 9.6 43.6 10.3C43.6 10.7 43.5 11.2 43.2 11.5Z" fill="black"/>
<path id="Vector_3" d="M13 39.3C11.1 39.3 9.5 40.9 9.5 42.8C9.5 44.7 11.1 46.3 13 46.3C14.9 46.3 16.5 44.7 16.5 42.8C16.5 40.9 14.9 39.3 13 39.3ZM13 45.3C11.6 45.3 10.5 44.2 10.5 42.8C10.5 41.4 11.6 40.3 13 40.3C14.4 40.3 15.5 41.4 15.5 42.8C15.5 44.2 14.3 45.3 13 45.3Z" fill="#FCB019"/>
</g>
</svg>
