<svg width="9" height="8" viewBox="0 0 9 8" fill="none" xmlns="http://www.w3.org/2000/svg">
<path d="M7.65007 2.52877C8.02856 2.587 8.1887 3.05284 7.9121 3.32943L6.36901 4.82885L6.73295 6.93968C6.77662 7.24539 6.5437 7.47831 6.26711 7.47831C6.19432 7.47831 6.12154 7.46375 6.04875 7.43464L4.14172 6.43017L2.24925 7.43464C2.17647 7.46375 2.10368 7.47831 2.03089 7.47831C1.7543 7.47831 1.50682 7.24539 1.56505 6.93968L1.92899 4.82885L0.3859 3.32943C0.109308 3.05284 0.26944 2.587 0.647934 2.52877L2.77332 2.22307L3.73411 0.286926C3.82146 0.112236 3.98159 0.0248916 4.14172 0.0248916C4.31641 0.0248916 4.47654 0.112236 4.56389 0.286926L5.52468 2.22307L7.65007 2.52877ZM5.87406 4.31934L7.08233 3.15474L5.42278 2.90727L5.05884 2.8636L4.89871 2.52877L4.15628 1.02936L4.14172 5.64407L4.47654 5.81876L5.9614 6.5903L5.67026 4.94531L5.61203 4.58137L5.87406 4.31934Z" fill="#FBC418"/>
</svg>
