<svg width="42" height="36" viewBox="0 0 42 36" fill="none" xmlns="http://www.w3.org/2000/svg">
<g id="Rugby">
<path id="Vector" d="M32.5999 15.8C32.1999 15.8 31.7999 15.6 31.4999 15.4L28.2999 12.2L28.6999 11.8C29.3999 11.1 29.6999 10.3 29.6999 9.30001L32.9999 12.6C32.9999 12.6 33.0999 12.7 33.1999 12.7C33.2999 12.3 33.3999 12 33.4999 11.7L28.5999 6.80001L22.9999 1.20001C21.9999 0.200012 20.3999 0.200012 19.4999 1.20001L13.7999 6.90001C12.7999 7.90001 12.7999 9.50001 13.7999 10.4C14.2999 10.9 14.8999 11.1 15.5999 11.1C16.1999 11.1 16.8999 10.9 17.3999 10.4L21.2999 6.50001L22.6999 7.90001L15.9999 14.6L14.5999 16C14.1999 16.4 13.9999 16.9 13.8999 17.5L1.0999 30.3C0.599903 30.8 0.399902 31.4 0.399902 32.1C0.399902 32.8 0.699903 33.4 1.0999 33.9C1.5999 34.4 2.1999 34.6 2.8999 34.6C3.4999 34.6 4.1999 34.4 4.6999 33.9L16.6999 21.8L20.5999 25.7L15.2999 31C14.7999 31.5 14.5999 32.1 14.5999 32.8C14.5999 33.5 14.8999 34.1 15.2999 34.6C15.7999 35.1 16.3999 35.3 17.0999 35.3C17.7999 35.3 18.3999 35.1 18.8999 34.6L25.9999 27.5C26.3999 27.1 26.6999 26.5 26.6999 25.9V25.8C26.6999 25.8 26.6999 25.8 26.6999 25.7C26.6999 25.6 26.6999 25.6 26.6999 25.5V25.4C26.5999 24.8 26.3999 24.3 25.9999 23.9L21.3999 19.3L27.7999 12.9L30.9999 16.1C31.4999 16.6 32.0999 16.8 32.7999 16.8H33.7999C33.6999 16.5 33.4999 16.1 33.3999 15.8H32.5999ZM25.5999 25.6C25.5999 26.1 25.3999 26.4 25.1999 26.7L18.0999 33.8C17.4999 34.4 16.5999 34.4 15.9999 33.8C15.6999 33.5 15.5999 33.1 15.5999 32.7C15.5999 32.3 15.7999 31.9 15.9999 31.6L21.6999 26C21.7999 25.9 21.7999 25.8 21.7999 25.6C21.7999 25.5 21.6999 25.3 21.6999 25.2L17.3999 21L16.9999 20.7L16.5999 20.3L15.1999 18.9C14.8999 18.6 14.7999 18.3 14.7999 18C14.7999 17.7 14.8999 17.3 15.0999 17C15.1999 16.9 15.1999 16.8 15.2999 16.8L16.3999 15.7L16.5999 15.9L16.9999 16.3L18.4999 17.8L18.8999 18.2L19.2999 18.6L20.0999 19.4L24.9999 24.3C25.2999 24.6 25.3999 24.9 25.3999 25.3C25.5999 25.5 25.5999 25.6 25.5999 25.6ZM1.7999 33.1C1.4999 32.8 1.3999 32.4 1.3999 32C1.3999 31.6 1.5999 31.2 1.7999 30.9L13.9999 18.8C14.0999 19.1 14.2999 19.4 14.4999 19.6L15.9999 21L3.9999 33.1C3.3999 33.7 2.3999 33.7 1.7999 33.1ZM20.4999 18.5L19.3999 17.4L17.3999 15.4L16.9999 15L23.3999 8.60001L24.4999 9.70001C24.5999 9.80001 24.6999 9.80001 24.7999 9.80001C24.8999 9.80001 25.0999 9.80001 25.1999 9.70001C25.3999 9.50001 25.3999 9.30001 25.2999 9.10001C25.2999 9.10001 25.2999 9.00001 25.1999 9.00001L24.4999 8.30001L24.0999 7.90001L23.6999 7.50001L23.2999 7.10001L21.4999 5.30001C21.2999 5.10001 20.9999 5.10001 20.7999 5.30001L16.5999 9.50001C15.9999 10.1 15.0999 10.1 14.4999 9.50001C13.8999 8.90001 13.8999 8.00001 14.4999 7.40001L20.1999 1.70001C20.7999 1.10001 21.6999 1.10001 22.2999 1.70001L26.2999 5.70001L26.5999 6.00001L26.7999 6.20001L27.8999 7.30001L27.9999 7.40001C28.4999 7.90001 28.6999 8.50001 28.6999 9.20001C28.6999 9.90001 28.3999 10.5 27.9999 11L27.5999 11.4L26.8999 12.1L20.4999 18.5Z" fill="black"/>
<path id="Vector_2" d="M31.9 7.2C32.8 7.2 33.7 6.8 34.4 6.2C35.8 4.8 35.8 2.6 34.4 1.3C33 -0.1 30.8 -0.1 29.5 1.3C28.8 2 28.5 2.8 28.5 3.8C28.5 4.7 28.9 5.6 29.5 6.3C30.1 7 30.9 7.2 31.9 7.2ZM30.1 1.9C30.6 1.4 31.2 1.2 31.9 1.2C32.6 1.2 33.2 1.4 33.7 1.9C34.7 2.9 34.7 4.5 33.7 5.4C32.8 6.3 31.1 6.3 30.2 5.4C29.7 4.9 29.5 4.3 29.5 3.6C29.4 3 29.6 2.4 30.1 1.9Z" fill="black"/>
<path id="Vector_3" d="M37.9 16.7C37.7 16.7 37.6 16.6 37.4 16.5C37.4 16.6 37.3 16.7 37.3 16.8C37.1 17.2 36.8 17.6 36.6 17.9C36.3 18.3 35.7 18.3 35.4 17.9C35.2 17.6 34.9 17.2 34.7 16.8C34.5 16.5 34.4 16.2 34.3 15.8C34.1 15.3 34 14.8 34 14.2C34 13.7 34.1 13.2 34.2 12.8C34.3 12.4 34.4 12.1 34.6 11.8C34.8 11.3 35.1 10.9 35.4 10.5C35.5 10.3 35.8 10.2 36 10.2C36.2 10.2 36.4 10.3 36.6 10.5C36.9 10.9 37.1 11.3 37.4 11.8C37.4 11.9 37.5 12 37.5 12.1C37.6 12 37.8 12 38 11.9C38.2 11.9 38.3 11.8 38.5 11.8C38.2 11.1 37.8 10.4 37.4 9.90001C36.7 9.00001 35.3 9.00001 34.6 9.90001C34.2 10.4 33.8 11 33.5 11.7C33.4 12 33.2 12.4 33.2 12.7C33.1 13.2 33 13.7 33 14.2C33 14.8 33.1 15.3 33.2 15.8C33.3 16.1 33.4 16.5 33.6 16.8C33.9 17.5 34.3 18.1 34.6 18.5C34.9 18.9 35.4 19.2 36 19.2C36.6 19.2 37.1 18.9 37.4 18.5C37.7 18 38.1 17.4 38.4 16.8C38.2 16.8 38.1 16.7 37.9 16.7Z" fill="#EE2B2F"/>
<path id="Vector_4" d="M38.5999 11.8H38.4999C38.4999 11.8 38.4999 11.8 38.5999 11.8C38.2999 11.8 38.1999 11.8 37.9999 11.9C37.7999 11.9 37.6999 12 37.4999 12.1C37.0999 12.3 36.7999 12.5 36.5999 12.8C36.2999 13.2 36.0999 13.7 36.0999 14.3C36.0999 14.9 36.2999 15.4 36.5999 15.8C36.7999 16.1 37.0999 16.3 37.3999 16.5C37.4999 16.6 37.6999 16.6 37.8999 16.7C38.0999 16.7 38.1999 16.8 38.3999 16.8H38.5999C39.9999 16.8 41.0999 15.7 41.0999 14.3C41.0999 12.9 39.8999 11.8 38.5999 11.8ZM38.7999 15.8C38.6999 15.8 38.6999 15.8 38.5999 15.8C38.4999 15.8 38.3999 15.8 38.2999 15.8C38.0999 15.8 37.9999 15.7 37.7999 15.6C37.3999 15.3 37.0999 14.9 37.0999 14.3C37.0999 13.7 37.3999 13.3 37.8999 13C37.9999 12.9 38.1999 12.9 38.3999 12.8C38.4999 12.8 38.5999 12.8 38.6999 12.8C38.7999 12.8 38.8999 12.8 38.8999 12.8C39.5999 12.9 40.1999 13.5 40.1999 14.3C40.0999 15.1 39.4999 15.7 38.7999 15.8Z" fill="black"/>
</g>
</svg>
