<svg width="58" height="54" viewBox="0 0 58 54" fill="none" xmlns="http://www.w3.org/2000/svg">
<g id="Weightlifting">
<path id="Vector" d="M28.7 14.5C30.6 14.5 32.2 12.9 32.2 11C32.2 9.1 30.6 7.5 28.7 7.5C26.8 7.5 25.2 9 25.2 11C25.2 13 26.8 14.5 28.7 14.5ZM31.2 11C31.2 12.4 30.1 13.5 28.7 13.5C27.3 13.5 26.2 12.4 26.2 11C26.2 9.6 27.3 8.5 28.7 8.5C30.1 8.5 31.2 9.6 31.2 11Z" fill="black"/>
<path id="Vector_2" d="M25.5 16.5H31.9C32 16.5 32.2 16.4 32.3 16.4L41.5 7.20001H40.8H40L31.7 15.5H25.8L17.5 7.20001H16.8H16L25.2 16.4C25.3 16.4 25.4 16.5 25.5 16.5Z" fill="black"/>
<path id="Vector_3" d="M0.699951 6.10001C0.399951 6.10001 0.199951 6.30001 0.199951 6.60001C0.199951 6.90001 0.399951 7.10001 0.699951 7.10001H2.19995V6.10001H0.699951Z" fill="#2A76BC"/>
<path id="Vector_4" d="M11 6.10001H7.30005V7.10001H11C11 6.90001 10.9 6.80001 10.9 6.60001C10.9 6.50001 10.9 6.30001 11 6.10001Z" fill="#2A76BC"/>
<path id="Vector_5" d="M46.5 6.10001C46.5 6.30001 46.6 6.40001 46.6 6.60001C46.6 6.80001 46.6 6.90001 46.5 7.10001H50.2V6.10001H46.5Z" fill="#2A76BC"/>
<path id="Vector_6" d="M56.7 6.10001H55.2V7.10001H56.7C57 7.10001 57.2 6.90001 57.2 6.60001C57.2 6.30001 57 6.10001 56.7 6.10001Z" fill="#2A76BC"/>
<path id="Vector_7" d="M15.9 6.30001C15.9 6.40001 15.9 6.50001 15.9 6.70001C15.9 6.80001 15.9 6.90001 15.9 7.00001C15.9 7.10001 15.9 7.10001 15.9 7.20001H16H16.7001H17.4H40H40.7001H41.4001H41.6C41.6 7.10001 41.6 7.10001 41.6 7.00001C41.6 6.90001 41.6 6.80001 41.6 6.70001C41.6 6.60001 41.6 6.50001 41.6 6.30001V6.20001H41H16.4H15.8C15.9 6.20001 15.9 6.20001 15.9 6.30001Z" fill="#2A76BC"/>
<path id="Vector_8" d="M55.2 2.60001C55.2 2.30001 55 2.10001 54.7 2.10001H53.2V0.600006C53.2 0.300006 53 0.100006 52.7 0.100006H50.7C50.4 0.100006 50.2 0.300006 50.2 0.600006V6.10001V7.10001V12.6C50.2 12.9 50.4 13.1 50.7 13.1H52.7C53 13.1 53.2 12.9 53.2 12.6V11.1H54.7C55 11.1 55.2 10.9 55.2 10.6V7.10001V6.10001V2.60001ZM54.2 6.10001V7.10001V10.1H53.2V7.10001V6.10001V3.10001H54.2V6.10001ZM52.2 10.6V12.1H51.2V7.10001V6.10001V1.10001H52.2V2.60001V6.10001V7.10001V10.6Z" fill="#FCB019"/>
<path id="Vector_9" d="M7.19995 0.600006C7.19995 0.300006 6.99995 0.100006 6.69995 0.100006H4.69995C4.39995 0.100006 4.19995 0.300006 4.19995 0.600006V2.10001H2.69995C2.39995 2.10001 2.19995 2.30001 2.19995 2.60001V6.10001V7.10001V10.6C2.19995 10.9 2.39995 11.1 2.69995 11.1H4.19995V12.6C4.19995 12.9 4.39995 13.1 4.69995 13.1H6.69995C6.99995 13.1 7.19995 12.9 7.19995 12.6V7.10001V6.10001V0.600006ZM6.19995 6.10001V7.10001V12.1H5.19995V10.6V7.10001V6.10001V2.60001V1.10001H6.19995V6.10001ZM3.19995 7.10001V6.10001V3.10001H4.19995V6.10001V7.10001V10.1H3.19995V7.10001Z" fill="#FCB019"/>
<path id="Vector_10" d="M46.5 6.10002C46.4001 5.60002 46.2001 5.20002 45.8 4.80002C44.8 3.80002 43.2001 3.80002 42.3 4.80002L41 6.10002H41.6V6.20002C41.6 6.30002 41.6 6.40002 41.6 6.60002C41.6 6.70002 41.6 6.80002 41.6 6.90002C41.6 7.00002 41.6 7.00002 41.6 7.10002C41.7 7.60002 41.9 8.00002 42.3 8.40002C42.7 8.80002 43.2001 9.00002 43.7001 9.10002L32.4001 20.4C32.3001 20.5 32.3 20.6 32.3 20.8V29.5H25.3V20.8C25.3 20.7 25.2 20.5 25.2 20.4L13.7 9.10002C14.2 9.00002 14.7 8.80002 15.1 8.40002C15.5 8.00002 15.7 7.60002 15.8 7.10002C15.8 7.00002 15.8 7.00002 15.8 6.90002C15.8 6.80002 15.8 6.70002 15.8 6.60002C15.8 6.50002 15.8 6.40002 15.8 6.20002V6.10002H16.4L15.1 4.80002C14.1 3.80002 12.5 3.80002 11.6 4.80002C11.2 5.20002 11 5.60002 10.9 6.10002C10.9 6.30002 10.8 6.40002 10.8 6.60002C10.8 6.80002 10.8 6.90002 10.9 7.10002C10.9 7.30002 11 7.50002 11.1 7.70002C11.2 7.90002 11.4 8.20002 11.6 8.40002L24.2 21V30V31.5L16.7 49.5C16.2 50.8 16.8 52.2 18.1 52.8C18.4 52.9 18.7 53 19 53C19.3 53 19.7 52.9 20 52.8C20.6 52.5 21.1 52.1 21.3 51.4L28.3 34.5H29L36 51.4C36.3 52 36.7 52.5 37.3 52.8C37.9 53.1 38.6 53.1 39.2001 52.8C40.5 52.3 41.1 50.8 40.5 49.5L33 31.5V30V21L45.6 8.40002C45.8 8.20002 46 8.00002 46.1 7.70002C46.2 7.50002 46.3 7.30002 46.3 7.10002C46.3 6.90002 46.4001 6.80002 46.4001 6.60002C46.5 6.50002 46.5 6.30002 46.5 6.10002ZM43 7.70002C42.8 7.50002 42.7001 7.30002 42.7001 7.10002C42.6 6.90002 42.6 6.80002 42.6 6.60002C42.6 6.40002 42.6 6.30002 42.7001 6.10002C42.8 5.90002 42.9001 5.70002 43 5.50002C43.1 5.40002 43.3001 5.30002 43.4001 5.20002C43.5 5.20002 43.5 5.20002 43.6 5.10002C43.7 5.10002 43.8001 5.10002 43.9001 5.00002C44.1001 5.00002 44.3 5.00002 44.5 5.10002C44.7001 5.20002 44.9 5.30002 45.1 5.40002C45.2 5.50002 45.2001 5.60002 45.3 5.70002C45.4 5.80002 45.4001 5.90002 45.4001 6.00002C45.5 6.20002 45.5 6.30002 45.5 6.50002C45.5 6.70002 45.5 6.80002 45.4001 7.00002V7.10002C45.3001 7.30002 45.2 7.40002 45.1 7.60002C44.5 8.30002 43.6 8.30002 43 7.70002ZM37.8 51.8C37.4 51.6 37.1 51.4 37 51L29.8 33.8C29.7 33.6 29.5 33.5 29.3 33.5H28C27.8 33.5 27.6 33.6 27.5 33.8L20.4 51C20.2 51.4 20 51.7 19.6 51.8C19.2 52 18.8 52 18.5 51.8C17.7 51.5 17.4 50.6 17.7 49.8L25.2 31.7C25.2 31.6 25.2 31.6 25.2 31.5V30.4H32.2001V31.5C32.2001 31.6 32.2001 31.6 32.2001 31.7L39.7001 49.8C40 50.6 39.7001 51.4 38.9001 51.8C38.6001 52 38.2 52 37.8 51.8ZM14.5 7.70002C13.9 8.30002 12.9 8.30002 12.4 7.70002C12.3 7.60002 12.1 7.40002 12.1 7.20002C12.1 7.20002 12.1 7.20002 12.1 7.10002C12 6.90002 12 6.80002 12 6.60002C12 6.40002 12 6.30002 12.1 6.10002C12.1 6.00002 12.2 5.90002 12.3 5.80002C12.4 5.70002 12.4 5.60002 12.5 5.60002C12.6 5.50002 12.8 5.30002 13 5.30002C13.2 5.20002 13.4 5.20002 13.6 5.20002C13.8 5.20002 14 5.20002 14.2 5.30002C14.4 5.40002 14.5 5.50002 14.7 5.60002C14.9 5.80002 15 6.00002 15 6.20002C15.1 6.40002 15.1 6.50002 15.1 6.70002C15.1 6.90002 15.1 7.00002 15 7.20002C14.7 7.30002 14.6 7.50002 14.5 7.70002Z" fill="black"/>
</g>
</svg>
